<svg xmlns="http://www.w3.org/2000/svg" version="1.1" xmlns:xlink="http://www.w3.org/1999/xlink" xmlns:svgjs="http://svgjs.dev/svgjs" width="2000" height="1252" viewBox="0 0 2000 1252"><g transform="matrix(1,0,0,1,-1.2121212121212466,-2.019354838709546)"><svg viewBox="0 0 396 248" data-background-color="#f7f7ff" preserveAspectRatio="xMidYMid meet" height="1252" width="2000" xmlns="http://www.w3.org/2000/svg" xmlns:xlink="http://www.w3.org/1999/xlink"><g id="tight-bounds" transform="matrix(1,0,0,1,0.2400000000000091,0.4000000000000057)"><svg viewBox="0 0 395.52 247.2" height="247.2" width="395.52"><g><svg></svg></g><g><svg viewBox="0 0 395.52 247.2" height="247.2" width="395.52"><mask id="419c7d7c-1bac-4806-86f5-7a560aafc983"><rect width="395.52" height="247.2" fill="white"></rect><g transform="matrix(1,0,0,1,101.61478368355995,37.08)" id="clone"><svg viewBox="0 0 192.29043263288008 173.04" height="173.04" width="192.29043263288008"><g><svg viewBox="0 0 192.29043263288008 173.04" height="173.04" width="192.29043263288008"><g><svg viewBox="0 0 192.29043263288008 173.04" height="173.04" width="192.29043263288008"><g><svg viewBox="0 0 192.29043263288008 173.04" height="173.04" width="192.29043263288008"><g id="SvgjsG1002"><svg viewBox="0 0 192.29043263288008 173.04" height="173.04" width="192.29043263288008" id="SvgjsSvg1001"><g><svg viewBox="0 0 192.29043263288008 173.04" height="173.04" width="192.29043263288008"><g transform="matrix(1,0,0,1,0,0)"><svg width="192.29043263288008" viewBox="-1.5 -26.3 45.95 41.45" height="173.04" data-palette-color="#000000"><path d="M3.9 3.45L3.75 2.45Q4.2 1.2 4.63 0.13 5.05-0.95 5.25-0.95L5.25-0.95Q5.35-0.95 5.4-1L5.4-1Q5.3-1 5.2-1.1L5.2-1.1Q5.2-1.25 5.33-1.33 5.45-1.4 5.45-1.6L5.45-1.6 5.45-1.7 5.3-1.6Q5.3-1.85 5.43-1.85 5.55-1.85 5.55-2L5.55-2 5.45-2Q5.45-2.25 5.63-2.4 5.8-2.55 5.85-2.85L5.85-2.85 5.9-3.15 6.65-5.85 6.6-5.9Q6.55-5.9 6.5-5.93 6.45-5.95 6.4-5.95L6.4-5.95 5.65-5.95Q5.5-6 5.15-6.13 4.8-6.25 4.45-6.4 4.1-6.55 3.85-6.75 3.6-6.95 3.6-7.1L3.6-7.1Q3.6-7.35 3.73-7.35 3.85-7.35 4.1-7.45L4.1-7.45Q3.6-7.65 3.6-8.25L3.6-8.25 3.9-8.25Q3.95-8.25 4.2-8.28 4.45-8.3 4.7-8.3 4.95-8.3 5.18-8.33 5.4-8.35 5.45-8.35L5.45-8.35 6.15-8.35Q6.2-8.35 6.48-8.35 6.75-8.35 7.1-8.38 7.45-8.4 7.73-8.5 8-8.6 8-8.8L8-8.8 8-8.9 8.5-10.25 9-10.95 9.1-11.85 9.35-11.8 9.45-12.7 10.5-14 10.05-14.35 10.55-15.35Q10.6-15.35 10.8-15.85 11-16.35 11.28-17.05 11.55-17.75 11.83-18.53 12.1-19.3 12.25-19.85L12.25-19.85 12.5-20.4Q12.45-20.45 12.45-20.45L12.45-20.45Q12.45-20.55 12.53-20.75 12.6-20.95 12.85-21.35L12.85-21.35Q12.9-21.45 12.98-21.73 13.05-22 13.15-22.33 13.25-22.65 13.38-22.93 13.5-23.2 13.7-23.3L13.7-23.3 13.95-23.15Q13.9-23.15 14.1-23.18 14.3-23.2 14.5-23.3L14.5-23.3Q15-22.85 15.4-22.68 15.8-22.5 16.13-22.4 16.45-22.3 16.7-22.15 16.95-22 17.1-21.6L17.1-21.6Q17.1-21.5 17.28-21 17.45-20.5 17.45-20.3L17.45-20.3 17.45-20.25Q18.3-19.55 18.88-18.5 19.45-17.45 19.45-16.7L19.45-16.7 19.4-16.4 20.3-13.05 20.3-12.3Q20.6-12.3 20.6-12.15L20.6-12.15Q20.5-12.05 20.5-11.9L20.5-11.9 20.4-11.7 20.5-11.6 20.5-10.3 20.6-10.3Q20.6-10.2 20.55-10.1 20.5-10 20.5-9.9L20.5-9.9 20.7-9.7Q20.65-9.5 20.65-9.15L20.65-9.15Q20.65-8.8 20.7-8.53 20.75-8.25 20.85-7.95L20.85-7.95Q20.7-7.85 20.7-7.45L20.7-7.45Q20.7-7.3 20.75-7.28 20.8-7.25 20.8-7.15L20.8-7.15Q20.8-7 20.75-6.9L20.75-6.9 21-7 20.85-6.8 21-6.6 20.85-6.15Q20.85-5.95 21.03-5.8 21.2-5.65 21.2-5.4L21.2-5.4Q21.1-5.4 21.1-5.3L21.1-5.3 21.1-5.25Q21.1-5.1 21.15-5.08 21.2-5.05 21.2-4.95L21.2-4.95 21.1-4.75Q21.1-4.2 21.15-4.1 21.2-4 21.45-3.6L21.45-3.6 21.45-3.4 21.45-2.15Q21.55-2.05 21.63-2.02 21.7-2 21.7-1.9L21.7-1.9Q21.7-1.85 21.65-1.8L21.65-1.8 21.75-1.65Q21.75-1.4 21.83-1.18 21.9-0.95 21.9-0.85L21.9-0.85Q21.9-0.5 21.68-0.38 21.45-0.25 21.45 0.05L21.45 0.05Q21.4 0.05 21.38-0.1 21.35-0.25 21.15-0.25L21.15-0.25Q21.15 0 21.13 0.03 21.1 0.05 20.9 0.05L20.9 0.05 20.65 0.05Q20.55 0.05 20.48-0.15 20.4-0.35 20.3-0.35L20.3-0.35 19.45-0.35Q19.25-0.35 19.25-0.43 19.25-0.5 19.15-0.5L19.15-0.5Q18.95-0.5 18.85-0.38 18.75-0.25 18.5-0.25L18.5-0.25Q17.6-0.45 17.6-1.4L17.6-1.4Q17.6-1.5 17.68-1.58 17.75-1.65 17.75-1.7L17.75-1.7Q17.75-2.35 17.6-2.83 17.45-3.3 17.45-3.9L17.45-3.9Q17.6-3.9 17.65-3.83 17.7-3.75 17.8-3.65L17.8-3.65Q17.7-3.65 17.7-3.4L17.7-3.4Q17.7-3.2 18.05-3.1L18.05-3.1Q18.05-3.2 18.03-3.2 18-3.2 18-3.25L18-3.25Q18-3.3 18.03-3.33 18.05-3.35 18.05-3.4L18.05-3.4Q18-3.55 18-3.78 18-4 17.95-4.25L17.95-4.25 17.85-4.85 17.75-5 17.7-4.55 17.6-4.8 17.4-4.15Q17.4-4.3 17.38-4.58 17.35-4.85 17.35-5.15L17.35-5.15 17.35-5.95Q17.3-6.05 17.03-6.13 16.75-6.2 16.43-6.23 16.1-6.25 15.8-6.25 15.5-6.25 15.35-6.25L15.35-6.25Q15.1-6.25 14.95-6.2 14.8-6.15 14.55-6.15L14.55-6.15Q14.25-6.15 13.9-6.23 13.55-6.3 13.4-6.3L13.4-6.3 12.9-6.3Q12.6-6.3 12.48-6.05 12.35-5.8 12.3-5.48 12.25-5.15 12.25-4.85 12.25-4.55 12.2-4.45L12.2-4.45 12-4.05 12.3-3.95 12.2-3.8 11.7-3.8Q11.7-3.45 11.45-2.95 11.2-2.45 11-2.15L11-2.15 10.9-2Q10.9-1.95 10.88-1.9 10.85-1.85 10.85-1.8L10.85-1.8 10.85-1.7Q10.85-1.55 11-1.4L11-1.4Q10.75-1.15 10.55-0.73 10.35-0.3 10.25 0.1L10.25 0.1 10.25 0.55Q10.05 1.1 9.75 1.73 9.45 2.35 9.45 2.8L9.45 2.8 9.75 2.8Q9.65 2.95 9.5 2.95 9.35 2.95 9.35 3.15L9.35 3.15 9.4 3.15Q9.5 3.15 9.5 3.35L9.5 3.35Q9.5 3.65 9.33 3.83 9.15 4 8.97 4.17 8.8 4.35 8.63 4.6 8.45 4.85 8.45 5.3L8.45 5.3 8.6 5.4Q8.6 5.55 8.3 6 8 6.45 7.9 6.7L7.9 6.7Q7.9 6.85 7.6 6.9L7.6 6.9Q7.6 7.05 7.7 7.05 7.8 7.05 7.9 7.1L7.9 7.1Q7.8 7.3 7.7 7.4 7.6 7.5 7.6 7.7L7.6 7.7 7.9 7.6Q7.9 7.8 7.83 7.85 7.75 7.9 7.75 8.05L7.75 8.05 7.75 8.1 7.2 9.45 7.35 9.45 7.15 10.95Q7 11.15 7 11.28 7 11.4 6.9 11.65L6.9 11.65 6.95 11.7Q6.95 11.8 6.73 11.85 6.5 11.9 6.25 12.15L6.25 12.15Q6.15 12.15 6.03 12 5.9 11.85 5.9 11.75L5.9 11.75Q5.9 11.7 5.95 11.65L5.95 11.65Q5.7 11.5 5.7 11.45 5.7 11.4 5.5 11.4L5.5 11.4 5.35 11.6Q5.25 11.9 5.25 11.85L5.25 11.85 4.15 11.7 5.1 11.4Q5 11.35 4.53 11.33 4.05 11.3 3.9 11.3L3.9 11.3Q3.8 11.4 3.8 11.45 3.8 11.5 3.65 11.5L3.65 11.5 3.65 11.15Q3.6 11.2 3.55 11.2L3.55 11.2Q3.45 11.2 3.2 11.13 2.95 11.05 2.75 11.05L2.75 11.05 2.75 10.8Q2.4 10.8 2.2 10.95L2.2 10.95Q1.95 10.7 1.78 10.33 1.6 9.95 1.5 9.85L1.5 9.85Q1.85 9.65 1.88 9.35 1.9 9.05 1.9 8.65L1.9 8.65 2.05 8.65 2.3 9.15Q2.4 8.5 2.63 7.75 2.85 7 2.85 6.45L2.85 6.45 2.85 5.9 3 5.3Q3.2 4.9 3.3 4.7 3.4 4.5 3.5 4.15L3.5 4.15 3.65 3.95 4.2 3.95 5 3.7 5 3.95 4.7 4.5 4.7 5.05 5.05 5.35Q5.05 5.1 5.33 4.78 5.6 4.45 5.6 4.25L5.6 4.25 5.6 3.45Q5.6 3.3 5.48 3.23 5.35 3.15 5.25 3.15L5.25 3.15 5 3.15 4.7 3.45 3.9 3.45ZM13.5-9L13.8-8.9 14.45-8.9Q14.65-8.9 15.08-8.9 15.5-8.9 15.93-8.97 16.35-9.05 16.65-9.2 16.95-9.35 16.95-9.6L16.95-9.6 16.75-9.6 16.75-10.3Q16.7-10.3 16.7-10.35L16.7-10.35 16.7-10.65 16.6-10.65Q16.6-10.75 16.65-10.8 16.7-10.85 16.7-10.95L16.7-10.95 16.7-11.05 16.45-11.1Q16.6-11.1 16.7-11.2L16.7-11.2 16.6-11.6 16.6-11.7Q16.6-11.8 16.65-11.83 16.7-11.85 16.7-12L16.7-12Q16.7-12.3 16.53-12.6 16.35-12.9 16.35-13.15L16.35-13.15 16.45-13.5 15.9-14.85 15.9-14.95Q15.9-15.05 15.8-15.25 15.7-15.45 15.7-15.5L15.7-15.5Q15.25-14.2 14.7-12.53 14.15-10.85 13.6-9.6L13.6-9.6 13.5-9ZM4.35 6.15L4.1 6.45Q4.1 6.55 4 6.95L4 6.95 3.9 7.25 3.9 8.65 4.2 8.4Q4.2 8.15 4.28 7.95 4.35 7.75 4.35 7.55L4.35 7.55 4.35 6.15ZM3.4 7.55L3.4 6.55Q3.3 6.8 3.2 7.05 3.1 7.3 3.1 7.55L3.1 7.55 3.1 8.3 3.4 7.55ZM18.1-1.45L18.1-1.45 18.1-1.3Q18.1-0.95 18.35-0.95L18.35-0.95Q18.35-1 18.38-1.13 18.4-1.25 18.4-1.35L18.4-1.35Q18.4-1.65 18.2-1.65L18.2-1.65Q18.1-1.65 18.1-1.45ZM5.25 5.6L5.25 5.6Q5.05 5.6 5.05 5.9L5.05 5.9Q5.05 6.15 5.25 6.15L5.25 6.15Q5.5 6.15 5.5 5.9L5.5 5.9Q5.5 5.6 5.25 5.6ZM4.7 5.35L4.7 5.35Q4.5 5.35 4.5 5.65L4.5 5.65Q4.5 5.9 4.7 5.9L4.7 5.9Q4.95 5.9 4.95 5.65L4.95 5.65Q4.95 5.35 4.7 5.35ZM5.1 11.05L5.1 11.05Q5.1 11 4.67 11 4.25 11 4.2 11L4.2 11Q4.15 11 4.15 11.05L4.15 11.05 4.2 11.15 4.55 11.15Q4.75 11.15 4.93 11.15 5.1 11.15 5.1 11.05ZM3.1 8.9L3.1 8.9Q3.1 8.65 2.95 8.65L2.95 8.65Q2.85 8.65 2.85 8.9L2.85 8.9Q2.85 9.1 2.95 9.1L2.95 9.1Q3.1 9.1 3.1 8.9ZM18.05-2.5L18.05-2.5 18.05-2.35 18.05-2.05 18.05-1.95 18.15-1.95Q18.15-2.05 18.18-2.1 18.2-2.15 18.2-2.25L18.2-2.25Q18.2-2.4 18.05-2.5ZM6.9 10.8L6.9 10.95 7 10.95 6.9 10.8ZM6.25 11.7L6.35 11.8 6.35 11.7 6.25 11.7ZM25.35-2.4L25.35-2.4Q25.85-2.55 26.55-2.55L26.55-2.55Q27.95-2.55 29.15-2.35 30.35-2.15 31.35-2.1L31.35-2.1 31.75-2.35 33.1-2.45Q33.15-2.4 33.25-2.4L33.25-2.4Q33.45-2.4 33.55-2.55 33.65-2.7 33.8-2.7L33.8-2.7Q34.25-2.7 34.9-2.9 35.55-3.1 35.75-3.4L35.75-3.4Q36.1-4.55 36.25-5.7 36.4-6.85 36.4-7.7L36.4-7.7 36.1-8.3Q36.1-8.55 35.72-8.68 35.35-8.8 35.25-8.8L35.25-8.8 34.7-9Q34.25-9 33.92-9.15 33.6-9.3 33.22-9.45 32.85-9.6 32.3-9.75 31.75-9.9 30.9-9.9L30.9-9.9 30.45-9.9Q30.25-9.9 30.25-10.1L30.25-10.1Q29.85-10.5 29.37-10.6 28.9-10.7 28.55-11.15L28.55-11.15Q28.45-11.2 28.3-11.58 28.15-11.95 28-12.43 27.85-12.9 27.75-13.35 27.65-13.8 27.65-13.95L27.65-13.95Q27.9-13.95 27.9-14.3L27.9-14.3Q27.9-14.4 27.87-14.5 27.85-14.6 27.85-14.7L27.85-14.7Q27.85-14.8 28-14.95L28-14.95 28.2-15.1Q28.4-15.3 28.32-15.48 28.25-15.65 28.45-15.75L28.45-15.75 28.45-15.3 28.55-15.35 29.7-18.95 31.25-20.6 32.15-21.15 33.1-20.8Q33.45-20.8 33.92-20.95 34.4-21.1 34.8-21.1L34.8-21.1Q35.5-21.1 36.45-20.85 37.4-20.6 38.3-20.23 39.2-19.85 39.92-19.48 40.65-19.1 40.9-18.9L40.9-18.9Q40.85-18.55 40.75-18.55 40.65-18.55 40.65-18.45L40.65-18.45Q40.65-18.3 40.7-18.23 40.75-18.15 40.75-18L40.75-18Q40.75-17.85 40.5-17.65 40.25-17.45 40.05-17.45L40.05-17.45 37.15-17.7 37-17.7Q36.75-17.7 36.22-17.73 35.7-17.75 35.45-17.75L35.45-17.75Q34.7-17.75 34.1-17.35 33.5-16.95 33.07-16.28 32.65-15.6 32.42-14.78 32.2-13.95 32.2-13.05L32.2-13.05Q32.2-12.9 32.4-12.75 32.6-12.6 32.85-12.53 33.1-12.45 33.35-12.4 33.6-12.35 33.75-12.35L33.75-12.35 33.95-12.3Q34.3-12.05 34.4-11.95 34.5-11.85 34.75-11.85L34.75-11.85 34.95-11.85 35.55-11.9 36.4-11.6Q36.5-11.55 36.75-11.55L36.75-11.55 37.3-11.55Q38.1-11.25 38.85-10.9 39.6-10.55 40.17-9.93 40.75-9.3 41.1-8.33 41.45-7.35 41.45-5.85L41.45-5.85Q41.45-5.4 41.4-4.98 41.35-4.55 41.2-4.05L41.2-4.05 41.15-3.95Q41.05-3.85 40.8-3.5 40.55-3.15 40.45-3.1L40.45-3.1 40.25-2.55 40-2.35 38.05 0.2Q37.4 0.3 36.82 0.53 36.25 0.75 35.65 0.75L35.65 0.75Q35.55 0.75 35.25 0.65L35.25 0.65Q34.85 0.75 34.5 0.75 34.15 0.75 33.8 0.75L33.8 0.75Q33.3 0.75 32.05 0.65 30.8 0.55 29.42 0.38 28.05 0.2 26.77 0.03 25.5-0.15 24.9-0.3L24.9-0.3Q24.9-0.45 25.02-0.48 25.15-0.5 25.15-0.7L25.15-0.7Q25.15-0.75 25.1-0.75L25.1-0.75 25.05-0.75Q24.95-0.75 24.9-0.9L24.9-0.9Q25-0.9 25.22-0.95 25.45-1 25.45-1.1L25.45-1.1 25.3-1.45 25.4-1.6Q25.45-1.7 25.5-1.75 25.55-1.8 25.55-1.85L25.55-1.85Q25.55-2.1 25.45-2.05 25.35-2 25.35-2.4ZM28.85-17.25L28.85-17.25Q28.85-17.15 28.72-16.63 28.6-16.1 28.55-16L28.55-16Q28.4-16 28.4-16.15L28.4-16.15Q28.4-16.2 28.55-16.68 28.7-17.15 28.85-17.25ZM29.2-18.55L29.2-18.55Q29.2-18.5 29.25-18.5L29.25-18.5 29.4-18.5 28.95-17.75Q28.85-17.75 28.85-17.9L28.85-17.9Q28.85-18 28.97-18.23 29.1-18.45 29.2-18.55Z" opacity="1" transform="matrix(1,0,0,1,0,0)" fill="black" class="wordmark-text-0" id="SvgjsPath1000" stroke-width="5" stroke="black" stroke-linejoin="round"></path></svg></g></svg></g></svg></g></svg></g></svg></g></svg></g></svg></g></mask><g mask="url(#419c7d7c-1bac-4806-86f5-7a560aafc983)"><g><path d="M143.369 186.533l-1.046-6.973c2.092-5.811 4.137-11.204 6.136-16.178 1.952-5.021 3.394-7.531 4.324-7.531v0c0.465 0 0.814-0.116 1.046-0.349v0c-0.465 0-0.93-0.232-1.395-0.697v0c0-0.697 0.302-1.232 0.907-1.604 0.558-0.325 0.837-0.953 0.837-1.883v0-0.697l-1.046 0.697c0-1.162 0.302-1.743 0.906-1.743 0.558 0 0.837-0.349 0.837-1.046v0h-0.697c0-1.162 0.418-2.092 1.255-2.789 0.79-0.697 1.302-1.743 1.534-3.138v0l0.348-2.092 5.23-18.828-0.348-0.348c-0.232 0-0.465-0.07-0.698-0.209-0.232-0.093-0.465-0.139-0.697-0.14v0h-5.23c-0.697-0.232-1.86-0.651-3.486-1.255-1.627-0.558-3.254-1.185-4.882-1.883-1.627-0.697-3.022-1.511-4.184-2.44-1.162-0.93-1.743-1.743-1.743-2.441v0c0-1.162 0.302-1.743 0.907-1.743 0.558 0 1.418-0.232 2.58-0.698v0c-2.324-0.93-3.487-2.789-3.487-5.578v0h2.092c0.232 0 0.93-0.07 2.092-0.209 1.162-0.093 2.324-0.139 3.487-0.14 1.162 0 2.278-0.07 3.347-0.209 1.023-0.093 1.65-0.139 1.883-0.14v0h4.881c0.232 0 0.999 0 2.301 0 1.255 0 2.696-0.07 4.323-0.209 1.627-0.093 3.091-0.372 4.393-0.837 1.255-0.465 1.883-1.162 1.883-2.092v0-0.697l3.487-9.414 3.486-4.881 0.698-6.276 1.743 0.349 0.697-6.276 7.322-9.065-3.138-2.441 3.487-6.973c0.232 0 0.814-1.162 1.743-3.487 0.93-2.324 2.045-5.114 3.347-8.367 1.255-3.254 2.534-6.694 3.836-10.321 1.255-3.58 2.231-6.648 2.928-9.204v0l1.744-3.836c-0.232-0.232-0.349-0.349-0.349-0.348v0c0-0.465 0.186-1.162 0.558-2.092 0.325-0.93 1.069-2.324 2.231-4.184v0c0.232-0.465 0.535-1.348 0.907-2.65 0.325-1.255 0.721-2.65 1.185-4.184 0.465-1.488 0.999-2.882 1.604-4.184 0.558-1.255 1.302-2.115 2.231-2.58v0l1.744 1.046c-0.232 0 0.116-0.07 1.046-0.209 0.93-0.093 1.86-0.372 2.789-0.837v0c2.324 2.092 4.416 3.533 6.276 4.323 1.86 0.837 3.556 1.488 5.09 1.953 1.488 0.465 2.813 1.046 3.975 1.743 1.162 0.697 2.092 1.976 2.789 3.835v0c0 0.465 0.418 1.86 1.255 4.184 0.79 2.324 1.185 3.951 1.186 4.882v0 0.348c3.951 3.254 7.275 7.322 9.972 12.203 2.65 4.881 3.975 9.065 3.974 12.552v0l-0.348 2.092 6.276 23.36v5.23c1.395 0 2.092 0.349 2.091 1.046v0c-0.465 0.465-0.697 1.046-0.697 1.744v0l-0.697 1.394 0.697 0.697v9.066h0.697c0 0.465-0.116 0.93-0.348 1.394-0.232 0.465-0.349 0.93-0.349 1.395v0l1.395 1.395c-0.232 0.93-0.349 2.208-0.349 3.835v0c0 1.627 0.116 3.068 0.349 4.323 0.232 1.302 0.581 2.65 1.046 4.045v0c-0.697 0.465-1.046 1.627-1.046 3.486v0c0 0.697 0.116 1.092 0.348 1.186 0.232 0.139 0.349 0.442 0.349 0.906v0c0 0.697-0.116 1.278-0.349 1.744v0l1.744-0.698-1.046 1.395 1.046 1.395-1.046 3.137c0 0.93 0.418 1.743 1.255 2.441 0.79 0.697 1.185 1.627 1.185 2.789v0c-0.465 0-0.697 0.232-0.697 0.698v0 0.348c0 0.697 0.116 1.092 0.349 1.186 0.232 0.139 0.349 0.442 0.348 0.906v0l-0.697 1.395c0 2.557 0.116 4.068 0.349 4.533 0.232 0.465 0.93 1.627 2.092 3.486v0 1.395 8.716c0.465 0.465 0.883 0.767 1.255 0.907 0.325 0.093 0.488 0.372 0.488 0.837v0c0 0.232-0.116 0.465-0.349 0.697v0l0.698 1.046c0 1.162 0.186 2.255 0.558 3.277 0.325 1.069 0.488 1.836 0.488 2.301v0c0 1.627-0.511 2.72-1.534 3.278-1.069 0.604-1.604 1.604-1.604 2.998v0c-0.232 0-0.395-0.349-0.488-1.046-0.139-0.697-0.674-1.046-1.604-1.046v0c0 1.162-0.046 1.813-0.14 1.953-0.139 0.093-0.674 0.139-1.604 0.139v0h-1.743c-0.465 0-0.86-0.465-1.185-1.394-0.372-0.93-0.79-1.395-1.255-1.395v0h-5.928c-0.93 0-1.395-0.186-1.394-0.558 0-0.325-0.232-0.488-0.698-0.488v0c-0.93 0-1.627 0.279-2.092 0.837-0.465 0.604-1.278 0.907-2.44 0.906v0c-4.184-0.93-6.276-3.603-6.276-8.019v0c0-0.465 0.186-0.883 0.558-1.255 0.325-0.325 0.488-0.604 0.488-0.837v0c0-3.022-0.349-5.648-1.046-7.88-0.697-2.185-1.046-4.672-1.046-7.461v0c0.697 0 1.162 0.163 1.395 0.488 0.232 0.372 0.581 0.79 1.046 1.255v0c-0.465 0-0.697 0.581-0.698 1.744v0c0 0.93 0.814 1.627 2.441 2.092v0c0-0.465-0.046-0.697-0.14-0.698-0.139 0-0.209-0.116-0.209-0.348v0c0-0.232 0.07-0.418 0.209-0.558 0.093-0.093 0.139-0.256 0.14-0.488v0c-0.232-0.697-0.349-1.581-0.349-2.65 0-1.023-0.116-2.115-0.348-3.277v0l-0.698-4.184-0.697-1.046-0.349 3.138-0.697-1.744-1.395 4.533c0-0.697-0.046-1.697-0.139-2.999-0.139-1.255-0.209-2.58-0.209-3.974v0-5.579c-0.232-0.465-0.976-0.883-2.232-1.255-1.302-0.325-2.696-0.558-4.184-0.697-1.534-0.093-2.998-0.139-4.393-0.14-1.395 0-2.441 0-3.138 0v0c-1.162 0-2.092 0.116-2.789 0.349-0.697 0.232-1.627 0.349-2.789 0.348v0c-1.395 0-2.905-0.186-4.533-0.557-1.627-0.325-2.789-0.488-3.487-0.489v0h-3.486c-1.395 0-2.371 0.581-2.929 1.744-0.604 1.162-1.023 2.487-1.255 3.974-0.232 1.534-0.349 2.998-0.349 4.394 0 1.395-0.116 2.324-0.348 2.789v0l-1.395 2.789 2.092 0.697-0.697 1.046h-3.487c0 1.627-0.581 3.603-1.743 5.928-1.162 2.324-2.208 4.184-3.138 5.578v0l-0.698 1.046c0 0.232-0.046 0.465-0.139 0.698-0.139 0.232-0.209 0.465-0.209 0.697v0 0.697c0 0.697 0.349 1.395 1.046 2.092v0c-1.162 1.162-2.208 2.72-3.138 4.672-0.93 1.999-1.627 3.928-2.092 5.788v0 3.138c-0.93 2.557-2.092 5.3-3.487 8.228-1.395 2.882-2.092 5.369-2.092 7.462v0h2.092c-0.465 0.697-1.046 1.046-1.743 1.046-0.697 0-1.046 0.465-1.046 1.394v0h0.349c0.465 0 0.697 0.465 0.697 1.395v0c0 1.395-0.395 2.51-1.185 3.347-0.837 0.79-1.674 1.581-2.511 2.371-0.79 0.837-1.581 1.836-2.371 2.998-0.837 1.162-1.255 2.789-1.255 4.882v0l1.046 0.697c0 0.697-0.697 2.092-2.092 4.184-1.395 2.092-2.324 3.719-2.789 4.881v0c0 0.697-0.697 1.162-2.092 1.395v0c0 0.697 0.232 1.046 0.697 1.046 0.465 0 0.93 0.116 1.395 0.348v0c-0.465 0.93-0.93 1.627-1.395 2.092-0.465 0.465-0.697 1.162-0.697 2.092v0l2.092-0.697c0 0.93-0.163 1.511-0.488 1.743-0.372 0.232-0.558 0.697-0.558 1.395v0 0.349l-3.835 9.413h1.046l-1.395 10.46c-0.697 0.93-1.046 1.697-1.046 2.301 0 0.558-0.232 1.418-0.697 2.58v0l0.348 0.349c0 0.465-0.511 0.814-1.534 1.046-1.069 0.232-2.185 0.93-3.347 2.092v0c-0.465 0-0.976-0.349-1.534-1.046-0.604-0.697-0.907-1.278-0.907-1.743v0c0-0.232 0.116-0.465 0.349-0.698v0c-1.162-0.697-1.743-1.162-1.743-1.394 0-0.232-0.465-0.349-1.395-0.349v0l-1.046 1.395c-0.465 1.395-0.697 1.976-0.697 1.743v0l-7.671-1.046 6.625-2.092c-0.465-0.232-1.79-0.395-3.975-0.488-2.231-0.139-3.696-0.209-4.393-0.209v0c-0.465 0.465-0.697 0.814-0.697 1.046 0 0.232-0.349 0.349-1.046 0.348v0-2.44c-0.232 0.232-0.465 0.349-0.698 0.348v0c-0.465 0-1.278-0.163-2.44-0.488-1.162-0.372-2.208-0.558-3.138-0.557v0-1.744c-1.627 0-2.905 0.349-3.835 1.046v0c-1.162-1.162-2.138-2.603-2.929-4.323-0.837-1.767-1.488-2.882-1.953-3.347v0c1.627-0.93 2.51-2.092 2.65-3.487 0.093-1.395 0.139-3.022 0.14-4.881v0h1.046l1.743 3.486c0.465-3.022 1.232-6.276 2.301-9.762 1.023-3.487 1.534-6.508 1.534-9.065v0-3.835l1.046-4.184c0.93-1.86 1.627-3.254 2.092-4.184 0.465-0.93 0.93-2.208 1.395-3.836v0l1.046-1.394h3.835l5.579-1.744v1.744l-2.092 3.835v3.835l2.44 2.092c0-1.162 0.651-2.487 1.953-3.974 1.255-1.534 1.883-2.766 1.882-3.696v0-5.579c0-0.697-0.279-1.209-0.836-1.534-0.604-0.372-1.139-0.558-1.604-0.558v0h-1.743l-2.092 2.092zM210.312 99.717l2.092 0.697h4.532c0.93 0 2.394 0 4.393 0 1.952 0 3.928-0.163 5.928-0.488 1.952-0.372 3.626-0.907 5.02-1.604 1.395-0.697 2.092-1.627 2.092-2.789v0h-1.394v-4.881c-0.232 0-0.349-0.116-0.349-0.349v0-2.092h-0.697c0-0.465 0.116-0.814 0.348-1.046 0.232-0.232 0.349-0.581 0.349-1.046v0-0.697l-1.743-0.349c0.697 0 1.278-0.232 1.743-0.697v0l-0.697-2.79v-0.697c0-0.465 0.116-0.767 0.348-0.906 0.232-0.093 0.349-0.488 0.349-1.186v0c0-1.395-0.395-2.789-1.185-4.184-0.837-1.395-1.255-2.673-1.256-3.835v0l0.698-2.441-3.836-9.413v-0.698c0-0.465-0.232-1.162-0.697-2.092-0.465-0.93-0.697-1.511-0.697-1.743v0c-2.092 6.043-4.416 12.947-6.973 20.71-2.557 7.81-5.114 14.62-7.671 20.432v0zM146.507 205.361l-1.743 2.092c0 0.465-0.232 1.627-0.698 3.486v0l-0.697 2.092v9.763l2.092-1.744c0-1.162 0.186-2.208 0.558-3.137 0.325-0.93 0.488-1.86 0.488-2.79v0zM139.882 215.123v-6.973c-0.465 1.162-0.93 2.324-1.394 3.487-0.465 1.162-0.697 2.324-0.698 3.486v0 5.23zM242.388 152.364v0 1.046c0 1.627 0.581 2.441 1.744 2.441v0c0-0.232 0.07-0.651 0.209-1.255 0.093-0.558 0.139-1.069 0.139-1.534v0c0-1.395-0.465-2.092-1.394-2.092v0c-0.465 0-0.697 0.465-0.698 1.394zM152.783 201.526v0c-0.93 0-1.395 0.697-1.395 2.091v0c0 1.162 0.465 1.743 1.395 1.744v0c1.162 0 1.743-0.581 1.743-1.744v0c0-1.395-0.581-2.092-1.743-2.091zM148.948 199.782v0c-0.93 0-1.395 0.697-1.395 2.092v0c0 1.162 0.465 1.743 1.395 1.743v0c1.162 0 1.743-0.581 1.743-1.743v0c0-1.395-0.581-2.092-1.743-2.092zM151.737 239.529v0c0-0.232-0.999-0.349-2.999-0.348-1.952 0-3.045 0-3.277 0v0c-0.232 0-0.349 0.116-0.349 0.348v0l0.349 0.698h2.441c0.93 0 1.813 0 2.649 0 0.79 0 1.185-0.232 1.186-0.698zM137.79 224.537v0c0-1.162-0.349-1.743-1.046-1.743v0c-0.465 0-0.697 0.581-0.697 1.743v0c0 0.93 0.232 1.395 0.697 1.395v0c0.697 0 1.046-0.465 1.046-1.395zM242.04 145.043v0 1.046 2.092 0.697h0.697c0-0.465 0.07-0.814 0.209-1.046 0.093-0.232 0.139-0.581 0.14-1.046v0c0-0.697-0.349-1.278-1.046-1.743zM164.289 237.786v1.046h0.697zM159.756 244.062l0.697 0.697v-0.697z" fill="#ffffff" fill-rule="nonzero" stroke="none" stroke-width="1" stroke-linecap="butt" stroke-linejoin="miter" stroke-miterlimit="10" stroke-dasharray="" stroke-dashoffset="0" font-family="none" font-weight="none" font-size="none" text-anchor="none" style="mix-blend-mode: normal" data-fill-palette-color="tertiary"></path></g></g><g transform="matrix(1,0,0,1,101.61478368355995,37.08)"><svg viewBox="0 0 192.29043263288008 173.04" height="173.04" width="192.29043263288008"><g><svg viewBox="0 0 192.29043263288008 173.04" height="173.04" width="192.29043263288008"><g><svg viewBox="0 0 192.29043263288008 173.04" height="173.04" width="192.29043263288008"><g><svg viewBox="0 0 192.29043263288008 173.04" height="173.04" width="192.29043263288008"><g id="textblocktransform"><svg viewBox="0 0 192.29043263288008 173.04" height="173.04" width="192.29043263288008" id="textblock"><g><svg viewBox="0 0 192.29043263288008 173.04" height="173.04" width="192.29043263288008"><g transform="matrix(1,0,0,1,0,0)"><svg width="192.29043263288008" viewBox="-1.5 -26.3 45.95 41.45" height="173.04" data-palette-color="#000000"><path d="M3.9 3.45L3.75 2.45Q4.2 1.2 4.63 0.13 5.05-0.95 5.25-0.95L5.25-0.95Q5.35-0.95 5.4-1L5.4-1Q5.3-1 5.2-1.1L5.2-1.1Q5.2-1.25 5.33-1.33 5.45-1.4 5.45-1.6L5.45-1.6 5.45-1.7 5.3-1.6Q5.3-1.85 5.43-1.85 5.55-1.85 5.55-2L5.55-2 5.45-2Q5.45-2.25 5.63-2.4 5.8-2.55 5.85-2.85L5.85-2.85 5.9-3.15 6.65-5.85 6.6-5.9Q6.55-5.9 6.5-5.93 6.45-5.95 6.4-5.95L6.4-5.95 5.65-5.95Q5.5-6 5.15-6.13 4.8-6.25 4.45-6.4 4.1-6.55 3.85-6.75 3.6-6.95 3.6-7.1L3.6-7.1Q3.6-7.35 3.73-7.35 3.85-7.35 4.1-7.45L4.1-7.45Q3.6-7.65 3.6-8.25L3.6-8.25 3.9-8.25Q3.95-8.25 4.2-8.28 4.45-8.3 4.7-8.3 4.95-8.3 5.18-8.33 5.4-8.35 5.45-8.35L5.45-8.35 6.15-8.35Q6.2-8.35 6.48-8.35 6.75-8.35 7.1-8.38 7.45-8.4 7.73-8.5 8-8.6 8-8.8L8-8.8 8-8.9 8.5-10.25 9-10.95 9.1-11.85 9.35-11.8 9.45-12.7 10.5-14 10.05-14.35 10.55-15.35Q10.6-15.35 10.8-15.85 11-16.35 11.28-17.05 11.55-17.75 11.83-18.53 12.1-19.3 12.25-19.85L12.25-19.85 12.5-20.4Q12.45-20.45 12.45-20.45L12.45-20.45Q12.45-20.55 12.53-20.75 12.6-20.95 12.85-21.35L12.85-21.35Q12.9-21.45 12.98-21.73 13.05-22 13.15-22.33 13.25-22.65 13.38-22.93 13.5-23.2 13.7-23.3L13.7-23.3 13.95-23.15Q13.9-23.15 14.1-23.18 14.3-23.2 14.5-23.3L14.5-23.3Q15-22.85 15.4-22.68 15.8-22.5 16.13-22.4 16.45-22.3 16.7-22.15 16.95-22 17.1-21.6L17.1-21.6Q17.1-21.5 17.28-21 17.45-20.5 17.45-20.3L17.45-20.3 17.45-20.25Q18.3-19.55 18.88-18.5 19.45-17.45 19.45-16.7L19.45-16.7 19.4-16.4 20.3-13.05 20.3-12.3Q20.6-12.3 20.6-12.15L20.6-12.15Q20.5-12.05 20.5-11.9L20.5-11.9 20.4-11.7 20.5-11.6 20.5-10.3 20.6-10.3Q20.6-10.2 20.55-10.1 20.5-10 20.5-9.9L20.5-9.9 20.7-9.7Q20.65-9.5 20.65-9.15L20.65-9.15Q20.65-8.8 20.7-8.53 20.75-8.25 20.85-7.95L20.85-7.95Q20.7-7.85 20.7-7.45L20.7-7.45Q20.7-7.3 20.75-7.28 20.8-7.25 20.8-7.15L20.8-7.15Q20.8-7 20.75-6.9L20.75-6.9 21-7 20.85-6.8 21-6.6 20.85-6.15Q20.85-5.95 21.03-5.8 21.2-5.65 21.2-5.4L21.2-5.4Q21.1-5.4 21.1-5.3L21.1-5.3 21.1-5.25Q21.1-5.1 21.15-5.08 21.2-5.05 21.2-4.95L21.2-4.95 21.1-4.75Q21.1-4.2 21.15-4.1 21.2-4 21.45-3.6L21.45-3.6 21.45-3.4 21.45-2.15Q21.55-2.05 21.63-2.02 21.7-2 21.7-1.9L21.7-1.9Q21.7-1.85 21.65-1.8L21.65-1.8 21.75-1.65Q21.75-1.4 21.83-1.18 21.9-0.95 21.9-0.85L21.9-0.85Q21.9-0.5 21.68-0.38 21.45-0.25 21.45 0.05L21.45 0.05Q21.4 0.05 21.38-0.1 21.35-0.25 21.15-0.25L21.15-0.25Q21.15 0 21.13 0.03 21.1 0.05 20.9 0.05L20.9 0.05 20.65 0.05Q20.55 0.05 20.48-0.15 20.4-0.35 20.3-0.35L20.3-0.35 19.45-0.35Q19.25-0.35 19.25-0.43 19.25-0.5 19.15-0.5L19.15-0.5Q18.95-0.5 18.85-0.38 18.75-0.25 18.5-0.25L18.5-0.25Q17.6-0.45 17.6-1.4L17.6-1.4Q17.6-1.5 17.68-1.58 17.75-1.65 17.75-1.7L17.75-1.7Q17.75-2.35 17.6-2.83 17.45-3.3 17.45-3.9L17.45-3.9Q17.6-3.9 17.65-3.83 17.7-3.75 17.8-3.65L17.8-3.65Q17.7-3.65 17.7-3.4L17.7-3.4Q17.7-3.2 18.05-3.1L18.05-3.1Q18.05-3.2 18.03-3.2 18-3.2 18-3.25L18-3.25Q18-3.3 18.03-3.33 18.05-3.35 18.05-3.4L18.05-3.4Q18-3.55 18-3.78 18-4 17.95-4.25L17.95-4.25 17.85-4.85 17.75-5 17.7-4.55 17.6-4.8 17.4-4.15Q17.4-4.3 17.38-4.58 17.35-4.85 17.35-5.15L17.35-5.15 17.35-5.95Q17.3-6.05 17.03-6.13 16.75-6.2 16.43-6.23 16.1-6.25 15.8-6.25 15.5-6.25 15.35-6.25L15.35-6.25Q15.1-6.25 14.95-6.2 14.8-6.15 14.55-6.15L14.55-6.15Q14.25-6.15 13.9-6.23 13.55-6.3 13.4-6.3L13.4-6.3 12.9-6.3Q12.6-6.3 12.48-6.05 12.35-5.8 12.3-5.48 12.25-5.15 12.25-4.85 12.25-4.55 12.2-4.45L12.2-4.45 12-4.05 12.3-3.95 12.2-3.8 11.7-3.8Q11.7-3.45 11.45-2.95 11.2-2.45 11-2.15L11-2.15 10.9-2Q10.9-1.95 10.88-1.9 10.85-1.85 10.85-1.8L10.85-1.8 10.85-1.7Q10.85-1.55 11-1.4L11-1.4Q10.75-1.15 10.55-0.73 10.35-0.3 10.25 0.1L10.25 0.1 10.25 0.55Q10.05 1.1 9.75 1.73 9.45 2.35 9.45 2.8L9.45 2.8 9.75 2.8Q9.65 2.95 9.5 2.95 9.35 2.95 9.35 3.15L9.35 3.15 9.4 3.15Q9.5 3.15 9.5 3.35L9.5 3.35Q9.5 3.65 9.33 3.83 9.15 4 8.97 4.17 8.8 4.35 8.63 4.6 8.45 4.85 8.45 5.3L8.45 5.3 8.6 5.4Q8.6 5.55 8.3 6 8 6.45 7.9 6.7L7.9 6.7Q7.9 6.85 7.6 6.9L7.6 6.9Q7.6 7.05 7.7 7.05 7.8 7.05 7.9 7.1L7.9 7.1Q7.8 7.3 7.7 7.4 7.6 7.5 7.6 7.7L7.6 7.7 7.9 7.6Q7.9 7.8 7.83 7.85 7.75 7.9 7.75 8.05L7.75 8.05 7.75 8.1 7.2 9.45 7.35 9.45 7.15 10.95Q7 11.15 7 11.28 7 11.4 6.9 11.65L6.9 11.65 6.95 11.7Q6.95 11.8 6.73 11.85 6.5 11.9 6.25 12.15L6.25 12.15Q6.15 12.15 6.03 12 5.9 11.85 5.9 11.75L5.9 11.75Q5.9 11.7 5.95 11.65L5.95 11.65Q5.7 11.5 5.7 11.45 5.7 11.4 5.5 11.4L5.5 11.4 5.35 11.6Q5.25 11.9 5.25 11.85L5.25 11.85 4.15 11.7 5.1 11.4Q5 11.35 4.53 11.33 4.05 11.3 3.9 11.3L3.9 11.3Q3.8 11.4 3.8 11.45 3.8 11.5 3.65 11.5L3.65 11.5 3.65 11.15Q3.6 11.2 3.55 11.2L3.55 11.2Q3.45 11.2 3.2 11.13 2.95 11.05 2.75 11.05L2.75 11.05 2.75 10.8Q2.4 10.8 2.2 10.95L2.2 10.95Q1.95 10.7 1.78 10.33 1.6 9.95 1.5 9.85L1.5 9.85Q1.85 9.65 1.88 9.35 1.9 9.05 1.9 8.65L1.9 8.65 2.05 8.65 2.3 9.15Q2.4 8.5 2.63 7.75 2.85 7 2.85 6.45L2.85 6.45 2.85 5.9 3 5.3Q3.2 4.9 3.3 4.7 3.4 4.5 3.5 4.15L3.5 4.15 3.65 3.95 4.2 3.95 5 3.7 5 3.95 4.7 4.5 4.7 5.05 5.05 5.35Q5.05 5.1 5.33 4.78 5.6 4.45 5.6 4.25L5.6 4.25 5.6 3.45Q5.6 3.3 5.48 3.23 5.35 3.15 5.25 3.15L5.25 3.15 5 3.15 4.7 3.45 3.9 3.45ZM13.5-9L13.8-8.9 14.45-8.9Q14.65-8.9 15.08-8.9 15.5-8.9 15.93-8.97 16.35-9.05 16.65-9.2 16.95-9.35 16.95-9.6L16.95-9.6 16.75-9.6 16.75-10.3Q16.7-10.3 16.7-10.35L16.7-10.35 16.7-10.65 16.6-10.65Q16.6-10.75 16.65-10.8 16.7-10.85 16.7-10.95L16.7-10.95 16.7-11.05 16.45-11.1Q16.6-11.1 16.7-11.2L16.7-11.2 16.6-11.6 16.6-11.7Q16.6-11.8 16.65-11.83 16.7-11.85 16.7-12L16.7-12Q16.7-12.3 16.53-12.6 16.35-12.9 16.35-13.15L16.35-13.15 16.45-13.5 15.9-14.85 15.9-14.95Q15.9-15.05 15.8-15.25 15.7-15.45 15.7-15.5L15.7-15.5Q15.25-14.2 14.7-12.53 14.15-10.85 13.6-9.6L13.6-9.6 13.5-9ZM4.35 6.15L4.1 6.45Q4.1 6.55 4 6.95L4 6.95 3.9 7.25 3.9 8.65 4.2 8.4Q4.2 8.15 4.28 7.95 4.35 7.75 4.35 7.55L4.35 7.55 4.35 6.15ZM3.4 7.55L3.4 6.55Q3.3 6.8 3.2 7.05 3.1 7.3 3.1 7.55L3.1 7.55 3.1 8.3 3.4 7.55ZM18.1-1.45L18.1-1.45 18.1-1.3Q18.1-0.95 18.35-0.95L18.35-0.95Q18.35-1 18.38-1.13 18.4-1.25 18.4-1.35L18.4-1.35Q18.4-1.65 18.2-1.65L18.2-1.65Q18.1-1.65 18.1-1.45ZM5.25 5.6L5.25 5.6Q5.05 5.6 5.05 5.9L5.05 5.9Q5.05 6.15 5.25 6.15L5.25 6.15Q5.5 6.15 5.5 5.9L5.5 5.9Q5.5 5.6 5.25 5.6ZM4.7 5.35L4.7 5.35Q4.5 5.35 4.5 5.65L4.5 5.65Q4.5 5.9 4.7 5.9L4.7 5.9Q4.95 5.9 4.95 5.65L4.95 5.65Q4.95 5.35 4.7 5.35ZM5.1 11.05L5.1 11.05Q5.1 11 4.67 11 4.25 11 4.2 11L4.2 11Q4.15 11 4.15 11.05L4.15 11.05 4.2 11.15 4.55 11.15Q4.75 11.15 4.93 11.15 5.1 11.15 5.1 11.05ZM3.1 8.9L3.1 8.9Q3.1 8.65 2.95 8.65L2.95 8.65Q2.85 8.65 2.85 8.9L2.85 8.9Q2.85 9.1 2.95 9.1L2.95 9.1Q3.1 9.1 3.1 8.9ZM18.05-2.5L18.05-2.5 18.05-2.35 18.05-2.05 18.05-1.95 18.15-1.95Q18.15-2.05 18.18-2.1 18.2-2.15 18.2-2.25L18.2-2.25Q18.2-2.4 18.05-2.5ZM6.9 10.8L6.9 10.95 7 10.95 6.9 10.8ZM6.25 11.7L6.35 11.8 6.35 11.7 6.25 11.7ZM25.35-2.4L25.35-2.4Q25.85-2.55 26.55-2.55L26.55-2.55Q27.95-2.55 29.15-2.35 30.35-2.15 31.35-2.1L31.35-2.1 31.75-2.35 33.1-2.45Q33.15-2.4 33.25-2.4L33.25-2.4Q33.45-2.4 33.55-2.55 33.65-2.7 33.8-2.7L33.8-2.7Q34.25-2.7 34.9-2.9 35.55-3.1 35.75-3.4L35.75-3.4Q36.1-4.55 36.25-5.7 36.4-6.85 36.4-7.7L36.4-7.7 36.1-8.3Q36.1-8.55 35.72-8.68 35.35-8.8 35.25-8.8L35.25-8.8 34.7-9Q34.25-9 33.92-9.15 33.6-9.3 33.22-9.45 32.85-9.6 32.3-9.75 31.75-9.9 30.9-9.9L30.9-9.9 30.45-9.9Q30.25-9.9 30.25-10.1L30.25-10.1Q29.85-10.5 29.37-10.6 28.9-10.7 28.55-11.15L28.55-11.15Q28.45-11.2 28.3-11.58 28.15-11.95 28-12.43 27.85-12.9 27.75-13.35 27.65-13.8 27.65-13.95L27.65-13.95Q27.9-13.95 27.9-14.3L27.9-14.3Q27.9-14.4 27.87-14.5 27.85-14.6 27.85-14.7L27.85-14.7Q27.85-14.8 28-14.95L28-14.95 28.2-15.1Q28.4-15.3 28.32-15.48 28.25-15.65 28.45-15.75L28.45-15.75 28.45-15.3 28.55-15.35 29.7-18.95 31.25-20.6 32.15-21.15 33.1-20.8Q33.45-20.8 33.92-20.95 34.4-21.1 34.8-21.1L34.8-21.1Q35.5-21.1 36.45-20.85 37.4-20.6 38.3-20.23 39.2-19.85 39.92-19.48 40.65-19.1 40.9-18.9L40.9-18.9Q40.85-18.55 40.75-18.55 40.65-18.55 40.65-18.45L40.65-18.45Q40.65-18.3 40.7-18.23 40.75-18.15 40.75-18L40.75-18Q40.75-17.85 40.5-17.65 40.25-17.45 40.05-17.45L40.05-17.45 37.15-17.7 37-17.7Q36.75-17.7 36.22-17.73 35.7-17.75 35.45-17.75L35.45-17.75Q34.7-17.75 34.1-17.35 33.5-16.95 33.07-16.28 32.65-15.6 32.42-14.78 32.2-13.95 32.2-13.05L32.2-13.05Q32.2-12.9 32.4-12.75 32.6-12.6 32.85-12.53 33.1-12.45 33.35-12.4 33.6-12.35 33.75-12.35L33.75-12.35 33.95-12.3Q34.3-12.05 34.4-11.95 34.5-11.85 34.75-11.85L34.75-11.85 34.95-11.85 35.55-11.9 36.4-11.6Q36.5-11.55 36.75-11.55L36.75-11.55 37.3-11.55Q38.1-11.25 38.85-10.9 39.6-10.55 40.17-9.93 40.75-9.3 41.1-8.33 41.45-7.35 41.45-5.85L41.45-5.85Q41.45-5.4 41.4-4.98 41.35-4.55 41.2-4.05L41.2-4.05 41.15-3.95Q41.05-3.85 40.8-3.5 40.55-3.15 40.45-3.1L40.45-3.1 40.25-2.55 40-2.35 38.05 0.2Q37.4 0.3 36.82 0.53 36.25 0.75 35.65 0.75L35.65 0.75Q35.55 0.75 35.25 0.65L35.25 0.65Q34.85 0.75 34.5 0.75 34.15 0.75 33.8 0.75L33.8 0.75Q33.3 0.75 32.05 0.65 30.8 0.55 29.42 0.38 28.05 0.2 26.77 0.03 25.5-0.15 24.9-0.3L24.9-0.3Q24.9-0.45 25.02-0.48 25.15-0.5 25.15-0.7L25.15-0.7Q25.15-0.75 25.1-0.75L25.1-0.75 25.05-0.75Q24.95-0.75 24.9-0.9L24.9-0.9Q25-0.9 25.22-0.95 25.45-1 25.45-1.1L25.45-1.1 25.3-1.45 25.4-1.6Q25.45-1.7 25.5-1.75 25.55-1.8 25.55-1.85L25.55-1.85Q25.55-2.1 25.45-2.05 25.35-2 25.35-2.4ZM28.85-17.25L28.85-17.25Q28.85-17.15 28.72-16.63 28.6-16.1 28.55-16L28.55-16Q28.4-16 28.4-16.15L28.4-16.15Q28.4-16.2 28.55-16.68 28.7-17.15 28.85-17.25ZM29.2-18.55L29.2-18.55Q29.2-18.5 29.25-18.5L29.25-18.5 29.4-18.5 28.95-17.75Q28.85-17.75 28.85-17.9L28.85-17.9Q28.85-18 28.97-18.23 29.1-18.45 29.2-18.55Z" opacity="1" transform="matrix(1,0,0,1,0,0)" fill="#ffffff" class="wordmark-text-0" data-fill-palette-color="primary" id="text-0"></path></svg></g></svg></g></svg></g></svg></g></svg></g></svg></g></svg></g></svg></g><defs></defs></svg><rect width="395.52" height="247.2" fill="none" stroke="none" visibility="hidden"></rect></g></svg></g></svg>